<?xml version="1.0"?>
<svg xmlns="http://www.w3.org/2000/svg" viewBox="0 0 64 64" width="512" height="512"><g id="Time"><path d="M46,49a3,3,0,1,0,3,3A3,3,0,0,0,46,49Zm0,4a1,1,0,1,1,1-1A1,1,0,0,1,46,53Z"/><path d="M11,49a3,3,0,1,0,3,3A3,3,0,0,0,11,49Zm0,4a1,1,0,1,1,1-1A1,1,0,0,1,11,53Z"/><path d="M58,56H50.46A5.969,5.969,0,0,0,52,52h2a1,1,0,0,0,1-1V31.521A12.993,12.993,0,1,0,36.363,17H16a1,1,0,0,0-1,1v9H6a1,1,0,0,0-.97.757l-1,4A1,1,0,0,0,5,33h.72l-1.5,6H3a1,1,0,0,0-1,.91l-1,11A1,1,0,0,0,2,52H5a5.969,5.969,0,0,0,1.54,4H2a1,1,0,0,0,0,2H58a1,1,0,0,0,0-2ZM17,52H40a5.969,5.969,0,0,0,1.54,4H15.46A5.969,5.969,0,0,0,17,52Zm25,0a4,4,0,1,1,4,4A4,4,0,0,1,42,52Zm11-2H51.65a5.99,5.99,0,0,0-11.3,0H17V41H53ZM49,9A11,11,0,1,1,38,20,11.013,11.013,0,0,1,49,9ZM17,19H36.051c-.026.331-.051.662-.051,1A12.986,12.986,0,0,0,53,32.364V39H17ZM6.781,29H15v2H6.281Zm1,4H15v6H6.281ZM3.1,50l.818-9H15v6.54A5.981,5.981,0,0,0,5.35,50ZM7,52a4,4,0,1,1,4,4A4,4,0,0,1,7,52Z"/><path d="M62,56H61a1,1,0,0,0,0,2h1a1,1,0,0,0,0-2Z"/><path d="M20,45H40a1,1,0,0,0,0-2H20a1,1,0,0,0,0,2Z"/><path d="M48.442,20.831l5,3.354a1,1,0,0,0,1.116-1.661L50,19.467V12a1,1,0,0,0-2,0v8A1,1,0,0,0,48.442,20.831Z"/></g></svg>
